<svg width="129" height="104" viewBox="0 0 129 104" fill="none" xmlns="http://www.w3.org/2000/svg">
<g clip-path="url(#clip0_0_24)">
<rect width="129" height="104" fill="white"/>
<path d="M32.6053 36.531C31.0892 38.4081 29.3425 40.6431 28.764 43.0216C28.2355 45.1943 28.3666 47.4388 28.3666 49.6593C28.3666 55.4313 28.1474 61.4072 31.6634 66.2905C33.0003 68.1473 33.962 69.6461 36.4614 69.6461C38.5643 69.6461 40.6731 68.7485 42.5546 67.8506C43.8001 67.2561 45.0694 66.5882 46.3518 66.0844C47.8186 65.5082 45.8965 66.665 45.3215 66.7173C42.5379 66.9703 40.1873 68.0566 37.315 68.0566C36.1213 68.0566 34.4051 68.4538 33.6061 67.409C32.6056 66.1006 31.5949 64.9228 30.8833 63.4205C30.504 62.6197 30.0466 62.5593 29.4263 62.0517C28.7876 61.5292 29.0273 60.7275 28.6315 60.0943C27.7533 58.6891 27.8367 56.1966 27.8367 54.5751C27.8367 51.3123 26.9614 46.2784 29.4263 43.6839C30.2964 42.7679 35.6258 36.0012 32.2227 36.0012C30.0188 36.0012 29.2596 39.121 28.7787 40.7697C28.3221 42.3352 27.8367 43.8437 27.8367 45.5383" stroke="#76FF46" stroke-width="3" stroke-linecap="round"/>
<path d="M45.3215 32.2923C44.3584 35.904 45.766 38.8612 46.3959 42.3887C46.9518 45.5014 48.2784 48.4258 48.8832 51.5138C49.2108 53.186 49.6736 54.7649 50.2373 56.3707C50.5622 57.2963 50.5257 58.2691 50.8849 59.167C51.3572 60.3479 50.81 62.4184 51.6796 63.288" stroke="black" stroke-width="3" stroke-linecap="round"/>
<path d="M55.6535 29.908C55.6535 36.0198 56.3426 42.0545 58.1849 47.9226C59.0125 50.5586 59.5797 53.2548 60.4515 55.8702C60.8052 56.9315 60.8152 58.9126 61.4817 59.5791" stroke="black" stroke-width="3" stroke-linecap="round"/>
<path d="M49.5603 46.598C49.7679 49.9194 52.8091 46.4511 53.9609 45.4206C54.0016 45.3841 55.7598 44.3439 55.3297 44.2579C54.6956 44.1311 53.6922 44.6316 53.122 44.876C52.6025 45.0986 49.358 46.2215 51.3558 45.5972C53.3464 44.9752 54.5007 43.3688 56.1833 42.3593" stroke="black" stroke-width="3" stroke-linecap="round"/>
<path d="M69.1644 25.6693C69.1644 35.7538 69.6943 45.8632 69.6943 55.9586C69.6943 61.0246 70.2241 45.8358 70.2241 40.7697C70.2241 36.9116 69.9592 33.0102 69.9592 29.1279C69.9592 27.6316 69.9592 26.1353 69.9592 24.639C69.9592 22.5661 70.9895 25.4224 71.2691 26.0961C72.4116 28.8486 73.1697 31.8754 74.2126 34.6913C74.7812 36.2263 75.9206 37.3242 76.5675 38.7976C77.1243 40.0659 77.8038 41.2465 78.4367 42.477C79.2339 44.0272 80.1881 45.0675 80.7032 46.7599C81.1161 48.1166 82.6236 49.1217 83.4702 50.3069" stroke="black" stroke-width="3" stroke-linecap="round"/>
<path d="M70.754 46.0682C72.4958 45.7364 73.8592 45.3472 75.1251 44.0813C75.6817 43.5247 76.4143 42.9731 77.1121 42.6242" stroke="black" stroke-width="3" stroke-linecap="round"/>
<path d="M75.2576 21.1656C81.6965 22.1314 88.05 23.5079 94.3025 25.2866C95.2803 25.5648 102.809 26.6213 102.809 25.4043" stroke="black" stroke-width="3" stroke-linecap="round"/>
<path d="M86.1194 24.6096C87.0958 26.8628 88.0913 29.0084 88.6214 31.4092C89.0785 33.4796 89.445 35.7948 90.3728 37.7084C91.3493 39.7223 91.8368 41.8853 92.4628 44.0371C92.765 45.076 92.8097 46.4677 93.2722 47.3928" stroke="black" stroke-width="3" stroke-linecap="round"/>
<path d="M58.0377 64.6126C58.0377 66.6657 58.0126 68.7157 58.1702 70.7647C58.4112 73.8973 59.083 76.7468 59.745 79.8162C60.2971 82.3758 60.1571 90.2792 60.1571 87.6608" stroke="#76FF46" stroke-width="3" stroke-linecap="round"/>
<path d="M57.5079 65.4074C60.5198 67.4744 62.7421 70.4578 65.6616 72.6044C66.3495 73.1102 68.1592 75.1913 68.8995 74.9446" stroke="#76FF46" stroke-width="3" stroke-linecap="round"/>
<path d="M71.2838 60.109C70.9968 62.0221 70.6647 63.9005 70.4302 65.8195C70.2671 67.1534 69.8741 69.2812 69.2969 70.4998C69.0285 71.0664 68.6159 73.4781 68.3697 73.355" stroke="#76FF46" stroke-width="3" stroke-linecap="round"/>
<path d="M71.5487 60.109C73.3616 65.8876 75.1199 71.6285 76.7147 77.476C77.06 78.7423 77.4773 79.9355 77.7596 81.2144C77.8627 81.681 78.8139 83.8555 78.1717 82.8922" stroke="#76FF46" stroke-width="3" stroke-linecap="round"/>
<path d="M87.7089 55.3404C84.7878 56.1256 78.9832 55.9188 79.2167 60.006C79.4852 64.705 81.9092 69.2683 82.7343 73.9437C83.1383 76.2333 84.0145 78.5881 84.7948 80.7728C85.143 81.748 85.2244 81.885 86.1782 81.5381C87.0709 81.2135 88.3971 80.6145 89.0335 79.9781" stroke="black" stroke-width="3" stroke-linecap="round"/>
<path d="M82.4105 69.1163C84.5065 68.2679 86.3722 67.1816 88.2387 65.9372" stroke="black" stroke-width="3" stroke-linecap="round"/>
<path d="M75.3953 20.9527C76.0905 21.259 76.8355 21.421 77.582 21.5528C77.9431 21.6165 78.4622 21.5221 78.7822 21.7257C79.3617 22.0944 77.4212 21.5111 76.7633 21.3138C76.5328 21.2446 76.0045 21.2775 75.8224 21.1561C75.7083 21.08 75.8909 20.9648 75.9547 20.9578C76.4713 20.9004 77.025 20.9527 77.5464 20.9527C78.6024 20.9527 79.8403 21.4165 80.852 21.7257C81.3748 21.8854 81.8691 22.2183 82.3981 22.3207C83.0368 22.4443 83.6784 22.4173 84.3255 22.4173C84.6613 22.4173 84.869 22.5758 85.1798 22.6512C85.6449 22.7642 86.071 22.7493 86.5326 22.9208C86.9452 23.074 87.3826 23.1439 87.8091 23.2463C88.1879 23.3372 88.7105 23.2496 89.0449 23.4141C89.4159 23.5967 89.82 23.7369 90.1281 24.0142C90.3159 24.1832 90.5318 24.3299 90.7943 24.3396C91.3795 24.3613 91.8943 24.4719 92.4827 24.4719C93.3012 24.4719 94.2897 24.435 95.0356 24.7973C95.5311 25.038 96.1183 24.9887 96.6325 25.1635C97.2 25.3565 97.6398 25.6393 98.2395 25.7636C99.0172 25.9248 99.7187 25.7965 100.508 25.8043C101.209 25.8112 102.035 26.0173 102.674 25.8043" stroke="black" stroke-width="3" stroke-linecap="round"/>
<path d="M87.4785 24.2481C87.7589 25.0017 87.5519 25.8111 87.57 26.6078C87.5838 27.2112 87.8247 27.8643 87.9159 28.4691C87.9931 28.9819 88.2486 29.4643 88.3736 29.9643C88.5655 30.732 88.602 31.5218 88.8007 32.2934C88.9739 32.9658 89.3143 33.5796 89.4517 34.2666C89.5474 34.7453 89.7756 35.1943 89.8382 35.6702C89.9756 36.7141 90.41 37.7608 90.7231 38.7521C91.0377 39.7484 91.4074 40.6752 91.669 41.6915C91.7635 42.0588 91.9145 42.4113 91.9996 42.7798C92.0445 42.9748 92.0209 43.2143 92.147 43.3799C92.4617 43.7929 92.6714 44.3165 92.92 44.7733C93.3751 45.6096 93.6415 46.552 94.0694 47.4077" stroke="black" stroke-width="3" stroke-linecap="round"/>
<path d="M88.2387 79.9781C88.6323 79.9058 89.954 79.8757 90.0785 79.3158C90.1457 79.0131 90.1006 79.0471 90.3581 78.9184" stroke="black" stroke-width="3" stroke-linecap="round"/>
</g>
<defs>
<clipPath id="clip0_0_24">
<rect width="129" height="104" fill="white"/>
</clipPath>
</defs>
</svg>
